<?xml version="1.0" standalone="no"?>
<!DOCTYPE svg PUBLIC "-//W3C//DTD SVG 20010904//EN"
 "http://www.w3.org/TR/2001/REC-SVG-20010904/DTD/svg10.dtd">
<svg version="1.0" xmlns="http://www.w3.org/2000/svg"
 width="700.000000pt" height="700.000000pt" viewBox="0 0 700.000000 700.000000"
 preserveAspectRatio="xMidYMid meet">
<metadata>
Created by potrace 1.14, written by Peter Selinger 2001-2017
</metadata>
<g transform="translate(0.000000,700.000000) scale(0.100000,-0.100000)"
fill="#000000" stroke="none">
<path d="M3368 6995 c-2 -1 -41 -5 -88 -9 -93 -7 -97 -8 -280 -37 -143 -23
-347 -73 -500 -122 -709 -231 -1335 -693 -1771 -1308 -38 -54 -69 -100 -69
-102 0 -3 -19 -38 -42 -79 -61 -108 -199 -388 -251 -508 -131 -305 -218 -618
-244 -883 -10 -96 -10 -442 0 -542 18 -182 85 -465 136 -580 5 -11 16 -38 26
-60 48 -116 170 -329 231 -405 237 -293 450 -470 754 -625 261 -132 584 -234
830 -261 25 -3 54 -7 65 -9 11 -2 56 -7 100 -11 44 -4 82 -9 85 -12 6 -6 -494
5 -530 12 -14 3 -53 7 -86 10 -68 6 -128 14 -160 21 -12 3 -39 7 -60 10 -21 4
-48 8 -59 10 -54 8 -270 67 -350 95 -131 45 -318 139 -412 206 -173 125 -279
248 -359 418 l-28 60 -39 -85 c-49 -107 -102 -272 -121 -374 -19 -103 -15
-288 9 -380 76 -303 311 -530 680 -658 106 -37 302 -83 395 -93 30 -3 66 -8
80 -10 154 -27 616 -23 839 7 42 5 94 12 116 15 22 3 51 7 65 9 14 2 45 6 70
10 25 3 79 13 120 21 41 8 86 16 99 19 486 93 1100 298 1616 540 719 337 1328
747 1814 1221 l134 131 -80 80 c-208 208 -323 487 -324 778 0 119 6 162 33
274 112 461 521 807 991 838 84 5 97 8 91 22 -3 9 -14 39 -24 66 -182 517
-577 1082 -1009 1445 -29 25 -59 50 -65 55 -59 56 -325 239 -452 313 -113 66
-320 167 -439 215 -201 81 -477 163 -647 192 -18 3 -40 8 -48 10 -8 2 -33 7
-55 10 -23 3 -50 7 -60 9 -11 2 -52 7 -92 11 -40 4 -85 9 -100 11 -32 5 -530
14 -535 9z m862 -1578 c19 -3 74 -8 122 -11 83 -6 129 -10 228 -21 93 -11 136
-17 185 -25 28 -5 64 -11 80 -14 109 -16 115 -18 116 -40 1 -26 1 -593 0 -624
-1 -19 -5 -22 -22 -17 -12 4 -31 8 -42 10 -12 1 -51 8 -87 14 -36 6 -85 13
-110 16 -25 3 -61 7 -80 10 -19 2 -62 7 -95 10 -33 3 -76 7 -95 10 -19 3 -69
7 -110 10 -41 3 -100 8 -130 10 -186 16 -629 22 -765 10 -651 -54 -1149 -592
-1148 -1240 0 -71 10 -206 17 -226 3 -8 7 -25 10 -39 22 -133 116 -338 218
-478 69 -95 206 -223 313 -293 168 -110 325 -169 525 -197 94 -13 622 -5 815
13 28 3 75 7 105 10 30 3 66 7 80 9 14 3 41 7 60 10 l35 6 0 440 0 440 30 9
c16 5 158 46 315 91 157 45 292 83 300 85 13 3 15 -67 14 -599 -1 -330 -2
-604 -3 -608 -3 -21 -419 -210 -676 -308 -213 -81 -642 -221 -724 -236 -8 -2
-50 -12 -94 -24 -70 -19 -95 -21 -196 -15 -99 5 -222 23 -346 50 -58 12 -171
48 -245 77 -676 268 -1137 883 -1206 1608 -7 77 -7 276 1 340 3 25 8 68 11 95
26 231 128 513 268 740 178 291 465 552 776 705 150 74 364 145 500 166 19 3
40 7 47 9 7 2 45 7 85 11 40 3 75 8 77 10 6 6 797 -3 841 -9z"/>
<path d="M6354 2398 c-141 -166 -528 -547 -688 -679 -16 -13 -46 -38 -65 -55
-225 -193 -621 -475 -906 -645 -613 -367 -1241 -628 -1920 -798 -162 -41 -198
-49 -225 -50 -34 -2 13 -20 125 -49 161 -41 241 -60 295 -67 25 -3 52 -8 60
-9 260 -47 671 -56 980 -21 241 27 570 108 802 196 485 184 879 438 1244 803
234 234 378 419 551 706 45 73 180 341 207 410 38 96 96 253 96 260 0 4 -42
10 -92 13 -51 4 -106 9 -123 12 -53 10 -175 45 -212 60 -19 8 -37 15 -38 15
-2 0 -42 -46 -91 -102z"/>
</g>
</svg>
