<svg xmlns="http://www.w3.org/2000/svg" width="1613.463" height="1613.463" viewBox="0 0 1613.463 1613.463">
  <path id="icons8-dribbble" d="M810.731,4C365.874,4,4,365.874,4,810.731s361.874,806.731,806.731,806.731,806.731-361.874,806.731-806.731S1255.589,4,810.731,4Zm0,134.455c170.432,0,324.846,64.076,443.282,168.069-12.605,17.595-29.675,38.866-56.723,65.127-57.511,55.673-149.424,122.638-289.919,174.372-95.064-175.685-188.29-307.776-250-390.761C706.476,143.97,757.947,138.455,810.731,138.455ZM525.014,201.481c55.148,72.217,153.363,206.147,252.1,384.458-273.375,72.48-524.165,81.671-623.956,81.934C197.8,460.15,337.512,289.192,525.014,201.481Zm821.438,203.784c81.934,108.457,132.88,242.65,136.556,388.66C1423.133,780.531,1334.9,767.4,1220.4,766.613c-59.612-.263-127.1,3.939-199.582,12.605-16.807-38.341-34.927-75.368-52.522-111.346,150.737-57.774,253.417-133.93,321.432-199.582A640.881,640.881,0,0,0,1346.452,405.265ZM838.043,707.789c15.494,31.25,31.25,63.288,46.219,96.64C596.969,884,390.559,1127.7,302.323,1249.812,200.693,1132.164,138.455,978.8,138.455,810.731v-8.4C229.318,803.378,518.186,797.076,838.043,707.789ZM1220.4,898.968c120.012,0,203,16.807,252.1,29.412a667.449,667.449,0,0,1-275.213,432.778c-26.786-160.716-70.9-313.554-123.951-453.786C1126.386,902.119,1176.544,898.968,1220.4,898.968ZM936.783,930.481c60.4,153.363,111.083,321.695,136.556,500.005-80.358,33.876-169.645,52.522-262.608,52.522-154.151,0-296.484-51.734-409.668-138.657C470.129,1249.812,673.125,998.234,936.783,930.481Z" transform="translate(-4 -4)" fill="#fff"/>
</svg>
