<svg xmlns="http://www.w3.org/2000/svg" width="1479.008" height="1479.008" viewBox="0 0 1479.008 1479.008">
  <path id="icons8-linkedin" d="M1348.552,4H138.455A134.418,134.418,0,0,0,4,138.455v1210.1a134.418,134.418,0,0,0,134.455,134.455h1210.1a134.418,134.418,0,0,0,134.455-134.455V138.455A134.418,134.418,0,0,0,1348.552,4ZM471.5,1214.1H273.179V575.973H471.5ZM370.323,484.745A115.6,115.6,0,1,1,485.888,369.113,115.625,115.625,0,0,1,370.323,484.745ZM1214.366,1214.1H1016.179V903.774c0-74.018-1.345-169.212-103.06-169.212-103.194,0-119.06,80.606-119.06,163.834v315.7H595.872V575.973H786.126v87.194h2.689c26.488-50.152,91.161-103.06,187.632-103.06,200.809,0,237.919,132.169,237.919,304V1214.1Z" transform="translate(-4 -4)" fill="#fff"/>
</svg>
