<svg xmlns="http://www.w3.org/2000/svg" width="1613.463" height="1588.589" viewBox="0 0 1613.463 1588.589">
  <path id="icons8-github" d="M809.732,3C364.214,3,3,364.214,3,809.732c0,378.021,260.305,694.327,611.234,781.857a117.727,117.727,0,0,1-6.185-39.194V1414.511H506.669c-55.194,0-104.27-23.731-128.069-67.833-26.42-49.009-30.992-123.968-96.472-169.817-19.429-15.261-4.639-32.673,17.748-30.32,41.345,11.7,75.631,40.068,107.9,82.152,32.135,42.152,47.261,51.7,107.3,51.7,29.109,0,72.673-1.681,113.682-8.135,22.051-56,60.169-107.564,106.758-131.9C466.871,1112.726,338.668,979.078,338.668,797.63c0-78.118,33.278-153.682,89.816-217.347C409.929,517.09,386.6,388.214,435.61,339.138c120.875,0,193.952,78.387,211.5,99.564a610,610,0,0,1,392.34.134c17.345-21.042,90.488-99.7,211.633-99.7,49.211,49.143,25.614,178.557,6.857,241.616,56.2,63.53,89.278,138.892,89.278,216.876,0,181.313-128,314.894-396.24,342.659,73.816,38.521,127.665,146.758,127.665,228.305v183.8c0,6.992-1.546,12.034-2.353,18.017,314.356-110.186,540.174-408.677,540.174-760.68C1616.463,364.214,1255.249,3,809.732,3Z" transform="translate(-3 -3)" fill="#fff"/>
</svg>
