<svg xmlns="http://www.w3.org/2000/svg" width="1210.098" height="1210.098" viewBox="0 0 1210.098 1210.098">
  <path id="icons8-twitter" d="M944.187,3H271.91C123.4,3,3,123.4,3,271.91V944.187c0,148.506,120.4,268.91,268.91,268.91H944.187c148.506,0,268.91-120.4,268.91-268.91V271.91C1213.1,123.4,1092.693,3,944.187,3Zm3.361,437.921V463.98c0,218.96-167.128,472.543-472.543,472.543-92.169,0-178.624-28.841-253.515-74.891h40.337c74.892,0,149.85-28.841,207.464-69.177-74.892,0-132.506-51.832-155.565-115.228,11.5,0,23.059,5.782,28.841,5.782,17.277,0,28.841,0,46.118-5.782-74.892-17.277-132.506-80.673-132.506-161.346,23.059,11.5,46.118,17.278,74.892,23.059-46.118-40.337-74.892-86.455-74.892-144.069,0-28.841,5.782-57.614,23.059-80.673,80.673,97.951,201.683,167.128,339.97,172.842,0-11.5-5.782-23.059-5.782-40.337,0-92.169,74.892-167.128,167.128-167.128,46.118,0,92.169,17.277,121.01,51.833,40.337-5.782,74.892-23.059,103.732-40.337-11.5,40.337-40.337,69.177-74.892,92.169,34.555-5.782,63.4-11.5,97.951-28.841C1005.162,389.088,976.389,417.862,947.548,440.921Z" transform="translate(-3 -3)" fill="#fff"/>
</svg>
