<svg width="128" height="105" viewBox="0 0 128 105" fill="none" xmlns="http://www.w3.org/2000/svg">
<path d="M50.2208 2.75958C58.8257 -0.871847 69.2852 -0.871847 77.8902 2.75958L110.01 16.3219C118.986 20.1015 124.847 27.2162 125.292 34.9978L127.072 64.1975C127.591 72.572 122.324 80.5018 113.2 84.8003L79.2254 100.808C69.8045 105.255 58.1581 105.255 48.7372 100.808L14.7624 84.8003C5.63813 80.5018 0.371331 72.572 0.890596 64.1975L2.74511 34.9978C3.26438 27.2162 9.12462 20.1015 18.1005 16.3219L50.2208 2.75958Z" fill="url(#paint0_linear_1_203)" fill-opacity="0.8"/>
<path d="M109.803 16.814L109.803 16.8142C118.65 20.5395 124.328 27.507 124.758 35.0283L124.758 35.0303L126.539 64.23L126.539 64.2305C127.042 72.3401 121.945 80.0902 112.972 84.317L78.9977 100.325L78.9974 100.325C69.7208 104.704 58.2418 104.704 48.9652 100.325L48.9649 100.325L14.9901 84.317C6.01799 80.0902 0.920997 72.3401 1.42383 64.2305L3.27819 35.0334C3.27821 35.0331 3.27822 35.0328 3.27824 35.0326C3.78077 27.5072 9.46239 20.539 18.3078 16.8142L18.3083 16.814L50.4285 3.25181C50.4285 3.25179 50.4286 3.25178 50.4286 3.25177C58.9007 -0.323562 69.2102 -0.323563 77.6824 3.25177C77.6824 3.25178 77.6824 3.25179 77.6824 3.25181L109.803 16.814Z" stroke="url(#paint1_linear_1_203)" stroke-opacity="0.5" stroke-width="1.06852"/>
<path d="M109.803 16.814L109.803 16.8142C118.65 20.5395 124.328 27.507 124.758 35.0283L124.758 35.0303L126.539 64.23L126.539 64.2305C127.042 72.3401 121.945 80.0902 112.972 84.317L78.9977 100.325L78.9974 100.325C69.7208 104.704 58.2418 104.704 48.9652 100.325L48.9649 100.325L14.9901 84.317C6.01799 80.0902 0.920997 72.3401 1.42383 64.2305L3.27819 35.0334C3.27821 35.0331 3.27822 35.0328 3.27824 35.0326C3.78077 27.5072 9.46239 20.539 18.3078 16.8142L18.3083 16.814L50.4285 3.25181C50.4285 3.25179 50.4286 3.25178 50.4286 3.25177C58.9007 -0.323562 69.2102 -0.323563 77.6824 3.25177C77.6824 3.25178 77.6824 3.25179 77.6824 3.25181L109.803 16.814Z" stroke="url(#paint2_linear_1_203)" stroke-opacity="0.5" stroke-width="1.06852"/>
<defs>
<linearGradient id="paint0_linear_1_203" x1="0.855469" y1="0.0360107" x2="103.056" y2="123.976" gradientUnits="userSpaceOnUse">
<stop stop-color="#C4294E"/>
<stop offset="1" stop-color="#C4C4C4" stop-opacity="0"/>
</linearGradient>
<linearGradient id="paint1_linear_1_203" x1="22.3182" y1="3.67976" x2="24.829" y2="28.078" gradientUnits="userSpaceOnUse">
<stop stop-color="white"/>
<stop offset="1" stop-color="white" stop-opacity="0"/>
</linearGradient>
<linearGradient id="paint2_linear_1_203" x1="60.825" y1="97.3762" x2="62.9786" y2="72.3044" gradientUnits="userSpaceOnUse">
<stop stop-color="white"/>
<stop offset="1" stop-color="white" stop-opacity="0"/>
</linearGradient>
</defs>
</svg>
