<svg width="343" height="278" viewBox="0 0 343 278" fill="none" xmlns="http://www.w3.org/2000/svg">
<g opacity="0.5">
<g style="mix-blend-mode:hard-light" filter="url(#filter0_f_1_333)">
<ellipse cx="171.072" cy="138.678" rx="88.1528" ry="55.563" fill="#7A4FF2"/>
</g>
</g>
<path d="M205.876 82.8337C215.964 79.1282 226.498 79.1282 233.693 82.8337L260.176 96.3219C267.594 100.102 270.709 107.216 268.187 114.998L258.618 144.346C255.873 152.72 247.639 160.576 236.883 164.874L197.271 180.808C186.069 185.329 174.275 185.329 166.56 180.808L139.261 164.874C131.843 160.576 129.692 152.72 133.401 144.346L146.531 114.998C150.017 107.216 158.548 100.176 168.934 96.3219L205.876 82.8337Z" fill="url(#paint0_linear_1_333)" fill-opacity="0.8"/>
<path d="M206.06 83.3352L206.059 83.3356L169.119 96.8228C169.119 96.8229 169.119 96.8231 169.118 96.8233C158.822 100.644 150.429 107.604 147.019 115.216C147.019 115.216 147.019 115.216 147.019 115.216L133.889 144.562C133.889 144.562 133.889 144.563 133.889 144.563C132.075 148.659 131.711 152.588 132.673 155.993C133.633 159.395 135.928 162.325 139.529 164.412L139.531 164.413L166.829 180.347L166.83 180.347C174.355 184.757 185.965 184.795 197.071 180.313L197.071 180.313L236.684 164.379L236.685 164.378C247.34 160.12 255.428 152.362 258.11 144.179L267.679 114.833L206.06 83.3352ZM206.06 83.3352C216.056 79.6635 226.426 79.6921 233.449 83.3087L233.451 83.3098M206.06 83.3352L233.451 83.3098M233.451 83.3098L259.933 96.7979M233.451 83.3098L259.933 96.7979M259.933 96.7979C263.547 98.6392 266.084 101.277 267.419 104.371M259.933 96.7979L267.419 104.371M267.419 104.371C268.753 107.463 268.904 111.052 267.679 114.832L267.419 104.371Z" stroke="url(#paint1_linear_1_333)" stroke-opacity="0.5" stroke-width="1.06852"/>
<path d="M206.06 83.3352L206.059 83.3356L169.119 96.8228C169.119 96.8229 169.119 96.8231 169.118 96.8233C158.822 100.644 150.429 107.604 147.019 115.216C147.019 115.216 147.019 115.216 147.019 115.216L133.889 144.562C133.889 144.562 133.889 144.563 133.889 144.563C132.075 148.659 131.711 152.588 132.673 155.993C133.633 159.395 135.928 162.325 139.529 164.412L139.531 164.413L166.829 180.347L166.83 180.347C174.355 184.757 185.965 184.795 197.071 180.313L197.071 180.313L236.684 164.379L236.685 164.378C247.34 160.12 255.428 152.362 258.11 144.179L267.679 114.833L206.06 83.3352ZM206.06 83.3352C216.056 79.6635 226.426 79.6921 233.449 83.3087L233.451 83.3098M206.06 83.3352L233.451 83.3098M233.451 83.3098L259.933 96.7979M233.451 83.3098L259.933 96.7979M259.933 96.7979C263.547 98.6392 266.084 101.277 267.419 104.371M259.933 96.7979L267.419 104.371M267.419 104.371C268.753 107.463 268.904 111.052 267.679 114.832L267.419 104.371Z" stroke="url(#paint2_linear_1_333)" stroke-opacity="0.5" stroke-width="1.06852"/>
<defs>
<filter id="filter0_f_1_333" x="0.00185394" y="0.197777" width="342.14" height="276.96" filterUnits="userSpaceOnUse" color-interpolation-filters="sRGB">
<feFlood flood-opacity="0" result="BackgroundImageFix"/>
<feBlend mode="normal" in="SourceGraphic" in2="BackgroundImageFix" result="shape"/>
<feGaussianBlur stdDeviation="41.4585" result="effect1_foregroundBlur_1_333"/>
</filter>
<linearGradient id="paint0_linear_1_333" x1="279.674" y1="224.452" x2="193.853" y2="19.6277" gradientUnits="userSpaceOnUse">
<stop stop-color="#21C0E2"/>
<stop offset="1" stop-color="#521DC2"/>
</linearGradient>
<linearGradient id="paint1_linear_1_333" x1="154.984" y1="83.6996" x2="157.296" y2="108.146" gradientUnits="userSpaceOnUse">
<stop stop-color="white"/>
<stop offset="1" stop-color="white" stop-opacity="0"/>
</linearGradient>
<linearGradient id="paint2_linear_1_333" x1="196.899" y1="177.429" x2="198.881" y2="152.32" gradientUnits="userSpaceOnUse">
<stop stop-color="white"/>
<stop offset="1" stop-color="white" stop-opacity="0"/>
</linearGradient>
</defs>
</svg>
