<svg width="307" height="276" viewBox="0 0 307 276" fill="none" xmlns="http://www.w3.org/2000/svg">
<g opacity="0.5">
<g style="mix-blend-mode:hard-light" filter="url(#filter0_f_1_330)">
<ellipse cx="153.622" cy="137.752" rx="75.2435" ry="47.4262" transform="rotate(27.9671 153.622 137.752)" fill="#7A4FF2"/>
</g>
</g>
<g opacity="0.8">
<path d="M147.538 105.057C154.14 101.87 163.932 101.87 173.427 105.057L207.847 116.618C217.49 119.879 225.502 125.882 228.914 132.478L241.896 157.75C245.531 164.79 243.676 171.46 237 175.091L212.298 188.58C205.325 192.433 194.42 192.433 183.961 188.58L147.093 175.091C137.153 171.46 129.29 164.79 126.545 157.75L116.679 132.478C114.083 125.882 116.679 119.879 123.429 116.618L147.538 105.057Z" fill="url(#paint0_linear_1_330)" fill-opacity="0.8"/>
<path d="M147.769 105.538L147.77 105.538C154.207 102.431 163.845 102.404 173.257 105.563L207.676 117.124C217.239 120.358 225.111 126.29 228.439 132.722C228.439 132.722 228.44 132.723 228.44 132.723L241.421 157.994L241.421 157.995C243.19 161.421 243.6 164.709 242.8 167.554C242.002 170.396 239.977 172.864 236.745 174.622L236.744 174.623L212.042 188.111L212.039 188.112C205.25 191.864 194.52 191.901 184.146 188.078L184.144 188.078L147.277 174.59L147.276 174.59C137.422 170.99 129.713 164.404 127.043 157.555L127.043 157.555L117.177 132.283L117.176 132.282C115.922 129.096 115.935 126.094 117.04 123.507C118.148 120.917 120.377 118.686 123.661 117.099C123.661 117.099 123.662 117.099 123.662 117.099L147.769 105.538Z" stroke="url(#paint1_linear_1_330)" stroke-opacity="0.5" stroke-width="1.06852"/>
<path d="M147.769 105.538L147.77 105.538C154.207 102.431 163.845 102.404 173.257 105.563L207.676 117.124C217.239 120.358 225.111 126.29 228.439 132.722C228.439 132.722 228.44 132.723 228.44 132.723L241.421 157.994L241.421 157.995C243.19 161.421 243.6 164.709 242.8 167.554C242.002 170.396 239.977 172.864 236.745 174.622L236.744 174.623L212.042 188.111L212.039 188.112C205.25 191.864 194.52 191.901 184.146 188.078L184.144 188.078L147.277 174.59L147.276 174.59C137.422 170.99 129.713 164.404 127.043 157.555L127.043 157.555L117.177 132.283L117.176 132.282C115.922 129.096 115.935 126.094 117.04 123.507C118.148 120.917 120.377 118.686 123.661 117.099C123.661 117.099 123.662 117.099 123.662 117.099L147.769 105.538Z" stroke="url(#paint2_linear_1_330)" stroke-opacity="0.5" stroke-width="1.06852"/>
</g>
<defs>
<filter id="filter0_f_1_330" x="0.606895" y="0.0640945" width="306.031" height="275.376" filterUnits="userSpaceOnUse" color-interpolation-filters="sRGB">
<feFlood flood-opacity="0" result="BackgroundImageFix"/>
<feBlend mode="normal" in="SourceGraphic" in2="BackgroundImageFix" result="shape"/>
<feGaussianBlur stdDeviation="41.4585" result="effect1_foregroundBlur_1_330"/>
</filter>
<linearGradient id="paint0_linear_1_330" x1="253.625" y1="225.794" x2="184.985" y2="46.8012" gradientUnits="userSpaceOnUse">
<stop stop-color="#21C0E2"/>
<stop offset="1" stop-color="#521DC2"/>
</linearGradient>
<linearGradient id="paint1_linear_1_330" x1="137.455" y1="105.775" x2="139.262" y2="126.65" gradientUnits="userSpaceOnUse">
<stop stop-color="white"/>
<stop offset="1" stop-color="white" stop-opacity="0"/>
</linearGradient>
<linearGradient id="paint2_linear_1_330" x1="176.506" y1="185.698" x2="178.055" y2="164.266" gradientUnits="userSpaceOnUse">
<stop stop-color="white"/>
<stop offset="1" stop-color="white" stop-opacity="0"/>
</linearGradient>
</defs>
</svg>
