<svg width="319" height="278" viewBox="0 0 319 278" fill="none" xmlns="http://www.w3.org/2000/svg">
<g style="mix-blend-mode:hard-light" filter="url(#filter0_f_1_327)">
<ellipse cx="159.657" cy="139.341" rx="76.3991" ry="55.563" fill="#7A4FF2"/>
</g>
<g opacity="0.8">
<path d="M146.253 42.4083C156.564 37.2205 169.101 37.2205 179.338 42.4083L217.912 61.8994C228.742 67.3836 235.864 77.6109 236.531 88.8758L239.128 131.49C239.869 143.866 233.564 155.501 222.511 161.875L181.192 185.665C169.694 192.26 155.452 192.26 143.954 185.665L102.783 161.875C91.7305 155.501 85.4993 143.866 86.2412 131.49L88.9116 88.8758C89.6534 77.6109 96.7748 67.3095 107.605 61.8994L146.253 42.4083Z" fill="url(#paint0_linear_1_327)" fill-opacity="0.8"/>
<path d="M179.097 42.8851L179.096 42.8848C169.012 37.7744 156.654 37.7735 146.494 42.8853L179.097 42.8851ZM179.097 42.8851L217.671 62.3761M179.097 42.8851L217.671 62.3761M238.594 131.522L238.594 131.522C239.323 143.692 233.126 155.138 222.244 161.412L180.927 185.201C169.593 191.703 155.553 191.703 144.22 185.201L103.051 161.412L103.05 161.412C92.1708 155.139 86.0449 143.694 86.7745 131.522L89.4447 88.9109C90.1731 77.8508 97.1692 67.7097 107.844 62.3774L107.846 62.3765L146.493 42.8855L236.531 88.8758L239.128 131.49L238.594 131.522ZM238.594 131.522L235.998 88.9083L235.998 88.9074C235.343 77.852 228.35 67.7837 217.671 62.3761M238.594 131.522L217.671 62.3761" stroke="url(#paint1_linear_1_327)" stroke-opacity="0.3" stroke-width="1.06852"/>
<path d="M179.097 42.8851L179.096 42.8848C169.012 37.7744 156.654 37.7735 146.494 42.8853L179.097 42.8851ZM179.097 42.8851L217.671 62.3761M179.097 42.8851L217.671 62.3761M238.594 131.522L238.594 131.522C239.323 143.692 233.126 155.138 222.244 161.412L180.927 185.201C169.593 191.703 155.553 191.703 144.22 185.201L103.051 161.412L103.05 161.412C92.1708 155.139 86.0449 143.694 86.7745 131.522L89.4447 88.9109C90.1731 77.8508 97.1692 67.7097 107.844 62.3774L107.846 62.3765L146.493 42.8855L236.531 88.8758L239.128 131.49L238.594 131.522ZM238.594 131.522L235.998 88.9083L235.998 88.9074C235.343 77.852 228.35 67.7837 217.671 62.3761M238.594 131.522L217.671 62.3761" stroke="url(#paint2_linear_1_327)" stroke-opacity="0.3" stroke-width="1.06852"/>
</g>
<defs>
<filter id="filter0_f_1_327" x="0.340721" y="0.860863" width="318.632" height="276.96" filterUnits="userSpaceOnUse" color-interpolation-filters="sRGB">
<feFlood flood-opacity="0" result="BackgroundImageFix"/>
<feBlend mode="normal" in="SourceGraphic" in2="BackgroundImageFix" result="shape"/>
<feGaussianBlur stdDeviation="41.4585" result="effect1_foregroundBlur_1_327"/>
</filter>
<linearGradient id="paint0_linear_1_327" x1="251.015" y1="249.399" x2="102.585" y2="-20.666" gradientUnits="userSpaceOnUse">
<stop stop-color="#21C0E2"/>
<stop offset="1" stop-color="#521DC2"/>
</linearGradient>
<linearGradient id="paint1_linear_1_327" x1="112.192" y1="43.8407" x2="116.593" y2="79.3166" gradientUnits="userSpaceOnUse">
<stop stop-color="white"/>
<stop offset="1" stop-color="white" stop-opacity="0"/>
</linearGradient>
<linearGradient id="paint2_linear_1_327" x1="158.859" y1="180.725" x2="162.639" y2="144.218" gradientUnits="userSpaceOnUse">
<stop stop-color="white"/>
<stop offset="1" stop-color="white" stop-opacity="0"/>
</linearGradient>
</defs>
</svg>
