<svg width="295" height="280" viewBox="0 0 295 280" fill="none" xmlns="http://www.w3.org/2000/svg">
<g style="mix-blend-mode:hard-light" opacity="0.8" filter="url(#filter0_f_1_326)">
<ellipse cx="147.213" cy="139.715" rx="65.0994" ry="52.0795" transform="rotate(-27.4127 147.213 139.715)" fill="url(#paint0_linear_1_326)"/>
</g>
<path d="M130.007 103.76C139.057 100.128 149.591 100.128 157.676 103.76L188.091 117.322C196.547 121.102 201.517 128.216 200.998 135.998L198.995 165.197C198.402 173.572 192.096 181.502 182.453 185.8L146.401 201.808C136.387 206.255 124.74 206.255 115.913 201.808L84.015 185.8C75.41 181.502 71.1817 173.572 72.8137 165.197L78.4514 135.998C79.9351 128.216 86.7597 121.102 96.1806 117.322L130.007 103.76Z" fill="url(#paint1_linear_1_326)"/>
<path d="M130.206 104.255L130.206 104.255L96.3796 117.818C87.0698 121.553 80.4155 128.549 78.9762 136.098L78.976 136.099L73.3383 165.299L73.3381 165.3C71.7584 173.406 75.8322 181.116 84.2537 185.322L84.2546 185.323L116.152 201.331L116.153 201.331C124.821 205.697 136.298 205.71 146.184 201.32L182.235 185.312L130.206 104.255ZM130.206 104.255C139.136 100.672 149.518 100.681 157.458 104.247L157.459 104.248M130.206 104.255L157.459 104.248M157.459 104.248L187.873 117.81L157.459 104.248ZM200.465 135.962C200.966 128.457 196.178 121.522 187.873 117.81L200.465 135.962ZM200.465 135.962L198.462 165.16C197.886 173.287 191.75 181.071 182.236 185.312L200.465 135.962Z" stroke="url(#paint2_linear_1_326)" stroke-opacity="0.5" stroke-width="1.06852"/>
<path d="M130.206 104.255L130.206 104.255L96.3796 117.818C87.0698 121.553 80.4155 128.549 78.9762 136.098L78.976 136.099L73.3383 165.299L73.3381 165.3C71.7584 173.406 75.8322 181.116 84.2537 185.322L84.2546 185.323L116.152 201.331L116.153 201.331C124.821 205.697 136.298 205.71 146.184 201.32L182.235 185.312L130.206 104.255ZM130.206 104.255C139.136 100.672 149.518 100.681 157.458 104.247L157.459 104.248M130.206 104.255L157.459 104.248M157.459 104.248L187.873 117.81L157.459 104.248ZM200.465 135.962C200.966 128.457 196.178 121.522 187.873 117.81L200.465 135.962ZM200.465 135.962L198.462 165.16C197.886 173.287 191.75 181.071 182.236 185.312L200.465 135.962Z" stroke="url(#paint3_linear_1_326)" stroke-opacity="0.5" stroke-width="1.06852"/>
<defs>
<filter id="filter0_f_1_326" x="0.0882721" y="0.069046" width="294.25" height="279.291" filterUnits="userSpaceOnUse" color-interpolation-filters="sRGB">
<feFlood flood-opacity="0" result="BackgroundImageFix"/>
<feBlend mode="normal" in="SourceGraphic" in2="BackgroundImageFix" result="shape"/>
<feGaussianBlur stdDeviation="42.2711" result="effect1_foregroundBlur_1_326"/>
</filter>
<linearGradient id="paint0_linear_1_326" x1="31.6404" y1="142.611" x2="116.243" y2="254.71" gradientUnits="userSpaceOnUse">
<stop stop-color="#FF409A"/>
<stop offset="1" stop-color="#C438EF"/>
</linearGradient>
<linearGradient id="paint1_linear_1_326" x1="27.5228" y1="101.036" x2="193.68" y2="252.89" gradientUnits="userSpaceOnUse">
<stop stop-color="#D16397"/>
<stop offset="1" stop-color="#8B26AA" stop-opacity="0"/>
</linearGradient>
<linearGradient id="paint2_linear_1_326" x1="94.325" y1="104.68" x2="96.7915" y2="129.087" gradientUnits="userSpaceOnUse">
<stop stop-color="white"/>
<stop offset="1" stop-color="white" stop-opacity="0"/>
</linearGradient>
<linearGradient id="paint3_linear_1_326" x1="133.538" y1="198.376" x2="135.653" y2="173.298" gradientUnits="userSpaceOnUse">
<stop stop-color="white"/>
<stop offset="1" stop-color="white" stop-opacity="0"/>
</linearGradient>
</defs>
</svg>
