<svg width="343" height="278" viewBox="0 0 343 278" fill="none" xmlns="http://www.w3.org/2000/svg">
<g opacity="0.5">
<g style="mix-blend-mode:hard-light" filter="url(#filter0_f_1_329)">
<ellipse cx="171.081" cy="138.92" rx="88.1528" ry="55.563" fill="#7A4FF2"/>
</g>
</g>
<path d="M187.373 115.878C194.791 113.21 203.767 113.21 211.185 115.878L238.706 125.883C246.346 128.699 251.317 133.887 251.687 139.593L252.949 160.863C253.319 166.94 248.794 172.647 241.005 175.759L212.149 187.246C204.138 190.433 194.272 190.433 186.334 187.246L157.478 175.759C149.689 172.647 145.164 166.94 145.535 160.863L146.87 139.593C147.241 133.887 152.211 128.699 159.852 125.883L187.373 115.878Z" fill="url(#paint0_linear_1_329)" fill-opacity="0.8"/>
<path d="M252.415 160.896L252.415 160.895L251.154 139.628C251.154 139.628 251.154 139.627 251.154 139.627C250.803 134.223 246.067 129.166 238.522 126.384C238.522 126.384 238.522 126.384 238.521 126.384L211.004 116.38C211.004 116.38 211.003 116.38 211.003 116.38C203.702 113.754 194.854 113.755 187.554 116.38L160.036 126.384C160.036 126.384 160.036 126.384 160.035 126.384C152.491 129.165 147.755 134.223 147.403 139.627C147.403 139.627 147.403 139.628 147.403 139.628L146.068 160.896C145.717 166.654 150.005 172.198 157.676 175.263L186.532 186.75L186.533 186.751C194.342 189.886 204.066 189.887 211.952 186.75C211.952 186.75 211.952 186.75 211.952 186.75L240.807 175.263L252.415 160.896ZM252.415 160.896C252.767 166.654 248.478 172.197 240.808 175.263L252.415 160.896Z" stroke="url(#paint1_linear_1_329)" stroke-opacity="0.5" stroke-width="1.06852"/>
<path d="M252.415 160.896L252.415 160.895L251.154 139.628C251.154 139.628 251.154 139.627 251.154 139.627C250.803 134.223 246.067 129.166 238.522 126.384C238.522 126.384 238.522 126.384 238.521 126.384L211.004 116.38C211.004 116.38 211.003 116.38 211.003 116.38C203.702 113.754 194.854 113.755 187.554 116.38L160.036 126.384C160.036 126.384 160.036 126.384 160.035 126.384C152.491 129.165 147.755 134.223 147.403 139.627C147.403 139.627 147.403 139.628 147.403 139.628L146.068 160.896C145.717 166.654 150.005 172.198 157.676 175.263L186.532 186.75L186.533 186.751C194.342 189.886 204.066 189.887 211.952 186.75C211.952 186.75 211.952 186.75 211.952 186.75L240.807 175.263L252.415 160.896ZM252.415 160.896C252.767 166.654 248.478 172.197 240.808 175.263L252.415 160.896Z" stroke="url(#paint2_linear_1_329)" stroke-opacity="0.5" stroke-width="1.06852"/>
<defs>
<filter id="filter0_f_1_329" x="0.010643" y="0.440331" width="342.14" height="276.96" filterUnits="userSpaceOnUse" color-interpolation-filters="sRGB">
<feFlood flood-opacity="0" result="BackgroundImageFix"/>
<feBlend mode="normal" in="SourceGraphic" in2="BackgroundImageFix" result="shape"/>
<feGaussianBlur stdDeviation="41.4585" result="effect1_foregroundBlur_1_329"/>
</filter>
<linearGradient id="paint0_linear_1_329" x1="261.277" y1="218.919" x2="202.005" y2="66.8663" gradientUnits="userSpaceOnUse">
<stop stop-color="#21C0E2"/>
<stop offset="1" stop-color="#521DC2"/>
</linearGradient>
<linearGradient id="paint1_linear_1_329" x1="163.781" y1="116.528" x2="165.348" y2="134.333" gradientUnits="userSpaceOnUse">
<stop stop-color="white"/>
<stop offset="1" stop-color="white" stop-opacity="0"/>
</linearGradient>
<linearGradient id="paint2_linear_1_329" x1="196.555" y1="184.712" x2="197.898" y2="166.431" gradientUnits="userSpaceOnUse">
<stop stop-color="white"/>
<stop offset="1" stop-color="white" stop-opacity="0"/>
</linearGradient>
</defs>
</svg>
