<svg width="331" height="318" viewBox="0 0 331 318" fill="none" xmlns="http://www.w3.org/2000/svg">
<path d="M120.863 90.9275C128.175 87.0046 138.601 87.0046 148.349 90.9275L185.042 105.604C195.332 109.73 203.659 117.44 206.909 125.895L219.095 157.819C222.615 167.017 220.178 175.674 212.596 180.409L184.23 198.062C176.377 202.931 164.665 202.931 153.63 198.062L113.958 180.409C103.329 175.674 95.3409 167.017 92.9037 157.819L84.6445 125.895C82.4781 117.373 85.8631 109.662 93.4454 105.604L120.863 90.9275Z" fill="url(#paint0_linear_1_331)"/>
<path d="M121.094 91.3573L121.094 91.3571C128.245 87.5202 138.514 87.4953 148.167 91.3798L148.168 91.3802L184.861 106.057C195.056 110.144 203.263 117.77 206.453 126.069C206.453 126.069 206.454 126.07 206.454 126.07L218.639 157.993L218.639 157.993C222.09 167.01 219.69 175.404 212.337 179.995L183.973 197.647C176.297 202.407 164.765 202.442 153.828 197.616C153.828 197.616 153.827 197.616 153.827 197.616L114.157 179.963C103.633 175.276 95.7677 166.722 93.3755 157.695C93.3753 157.695 93.3752 157.694 93.3751 157.694L85.117 125.775C85.117 125.774 85.1169 125.774 85.1168 125.774C83.0052 117.466 86.2946 109.985 93.6754 106.034L93.6755 106.034L121.094 91.3573Z" stroke="url(#paint1_linear_1_331)" stroke-opacity="0.5" stroke-width="0.975154"/>
<path d="M121.094 91.3573L121.094 91.3571C128.245 87.5202 138.514 87.4953 148.167 91.3798L148.168 91.3802L184.861 106.057C195.056 110.144 203.263 117.77 206.453 126.069C206.453 126.069 206.454 126.07 206.454 126.07L218.639 157.993L218.639 157.993C222.09 167.01 219.69 175.404 212.337 179.995L183.973 197.647C176.297 202.407 164.765 202.442 153.828 197.616C153.828 197.616 153.827 197.616 153.827 197.616L114.157 179.963C103.633 175.276 95.7677 166.722 93.3755 157.695C93.3753 157.695 93.3752 157.694 93.3751 157.694L85.117 125.775C85.117 125.774 85.1169 125.774 85.1168 125.774C83.0052 117.466 86.2946 109.985 93.6754 106.034L93.6755 106.034L121.094 91.3573Z" stroke="url(#paint2_linear_1_331)" stroke-opacity="0.5" stroke-width="0.975154"/>
<g style="mix-blend-mode:hard-light" opacity="0.5" filter="url(#filter0_f_1_331)">
<ellipse cx="165.6" cy="158.7" rx="85.4815" ry="68.3852" transform="rotate(33.5372 165.6 158.7)" fill="url(#paint3_linear_1_331)"/>
</g>
<g style="mix-blend-mode:lighten" filter="url(#filter1_f_1_331)">
<ellipse cx="112.769" cy="110.894" rx="47.1823" ry="50.2279" transform="rotate(56.357 112.769 110.894)" fill="url(#paint4_linear_1_331)" fill-opacity="0.3"/>
</g>
<defs>
<filter id="filter0_f_1_331" x="0.393082" y="0.132472" width="330.413" height="317.135" filterUnits="userSpaceOnUse" color-interpolation-filters="sRGB">
<feFlood flood-opacity="0" result="BackgroundImageFix"/>
<feBlend mode="normal" in="SourceGraphic" in2="BackgroundImageFix" result="shape"/>
<feGaussianBlur stdDeviation="42.2711" result="effect1_foregroundBlur_1_331"/>
</filter>
<filter id="filter1_f_1_331" x="21.1783" y="20.4813" width="183.182" height="180.825" filterUnits="userSpaceOnUse" color-interpolation-filters="sRGB">
<feFlood flood-opacity="0" result="BackgroundImageFix"/>
<feBlend mode="normal" in="SourceGraphic" in2="BackgroundImageFix" result="shape"/>
<feGaussianBlur stdDeviation="21.1355" result="effect1_foregroundBlur_1_331"/>
</filter>
<linearGradient id="paint0_linear_1_331" x1="36.2188" y1="87.9854" x2="217.222" y2="248.966" gradientUnits="userSpaceOnUse">
<stop stop-color="#D16397"/>
<stop offset="1" stop-color="#8B26AA" stop-opacity="0"/>
</linearGradient>
<linearGradient id="paint1_linear_1_331" x1="107.235" y1="91.9659" x2="110.002" y2="118.614" gradientUnits="userSpaceOnUse">
<stop stop-color="white"/>
<stop offset="1" stop-color="white" stop-opacity="0"/>
</linearGradient>
<linearGradient id="paint2_linear_1_331" x1="148.921" y1="194.322" x2="151.295" y2="166.936" gradientUnits="userSpaceOnUse">
<stop stop-color="white"/>
<stop offset="1" stop-color="white" stop-opacity="0"/>
</linearGradient>
<linearGradient id="paint3_linear_1_331" x1="13.842" y1="162.503" x2="124.933" y2="309.7" gradientUnits="userSpaceOnUse">
<stop stop-color="#FF409A"/>
<stop offset="1" stop-color="#C438EF"/>
</linearGradient>
<linearGradient id="paint4_linear_1_331" x1="29.0051" y1="113.687" x2="113.852" y2="198.172" gradientUnits="userSpaceOnUse">
<stop stop-color="#FF409A"/>
<stop offset="1" stop-color="#C438EF"/>
</linearGradient>
</defs>
</svg>
