<svg width="132" height="114" viewBox="0 0 132 114" fill="none" xmlns="http://www.w3.org/2000/svg">
<path d="M41.0372 2.94138C48.8206 -0.980459 59.2436 -0.980459 68.5159 2.94138L103.304 17.6145C113.05 21.7392 120.36 29.4476 122.526 37.8998L130.648 69.8155C133.017 79.0115 129.429 87.6666 121.24 92.3998L90.6479 110.048C82.12 114.917 70.411 114.917 60.0557 110.048L22.6955 92.3998C12.6787 87.6666 5.77515 79.0115 4.55688 69.8155L0.42828 37.8998C-0.654625 29.38 3.74469 21.6715 11.8665 17.6145L41.0372 2.94138Z" fill="url(#paint0_linear_1_213)" fill-opacity="0.8"/>
<path d="M41.2563 3.37684L41.2566 3.37669C48.8916 -0.470409 59.1627 -0.48539 68.326 3.39032L68.3265 3.39051L103.114 18.0634C112.754 22.143 119.934 29.748 122.054 38.0208L130.175 69.9357L130.176 69.9371C132.491 78.9237 128.994 87.3553 120.996 91.9778L90.4062 109.625C90.4057 109.625 90.4052 109.625 90.4047 109.626C82.039 114.401 70.5014 114.42 60.2631 109.607L22.9038 91.9591C13.0054 87.2819 6.23285 78.7521 5.04022 69.7523C5.04018 69.752 5.04015 69.7517 5.04011 69.7514L0.911842 37.8384C-0.142549 29.5428 4.13018 22.0239 12.0843 18.0505L12.0855 18.0499L41.2563 3.37684Z" stroke="url(#paint1_linear_1_213)" stroke-opacity="0.5" stroke-width="0.974904"/>
<path d="M41.2563 3.37684L41.2566 3.37669C48.8916 -0.470409 59.1627 -0.48539 68.326 3.39032L68.3265 3.39051L103.114 18.0634C112.754 22.143 119.934 29.748 122.054 38.0208L130.175 69.9357L130.176 69.9371C132.491 78.9237 128.994 87.3553 120.996 91.9778L90.4062 109.625C90.4057 109.625 90.4052 109.625 90.4047 109.626C82.039 114.401 70.5014 114.42 60.2631 109.607L22.9038 91.9591C13.0054 87.2819 6.23285 78.7521 5.04022 69.7523C5.04018 69.752 5.04015 69.7517 5.04011 69.7514L0.911842 37.8384C-0.142549 29.5428 4.13018 22.0239 12.0843 18.0505L12.0855 18.0499L41.2563 3.37684Z" stroke="url(#paint2_linear_1_213)" stroke-opacity="0.5" stroke-width="0.974904"/>
<defs>
<linearGradient id="paint0_linear_1_213" x1="0.266113" y1="0" x2="112.823" y2="129.781" gradientUnits="userSpaceOnUse">
<stop stop-color="#C4294E"/>
<stop offset="1" stop-color="#C4C4C4" stop-opacity="0"/>
</linearGradient>
<linearGradient id="paint1_linear_1_213" x1="22.553" y1="3.97948" x2="25.4337" y2="30.5962" gradientUnits="userSpaceOnUse">
<stop stop-color="white"/>
<stop offset="1" stop-color="white" stop-opacity="0"/>
</linearGradient>
<linearGradient id="paint2_linear_1_213" x1="62.5382" y1="106.309" x2="65.01" y2="78.9483" gradientUnits="userSpaceOnUse">
<stop stop-color="white"/>
<stop offset="1" stop-color="white" stop-opacity="0"/>
</linearGradient>
</defs>
</svg>
