<svg xmlns="http://www.w3.org/2000/svg" width="351.722" height="351.722" viewBox="0 0 351.722 351.722">
  <path id="iconmonstr-instagram-11" d="M175.861,31.7c46.955,0,52.524.176,71.077,1.026,47.658,2.169,69.919,24.782,72.088,72.088.85,18.539,1.011,24.108,1.011,71.062s-.176,52.524-1.011,71.062c-2.184,47.263-24.386,69.919-72.088,72.088-18.553.85-24.093,1.026-71.077,1.026-46.955,0-52.524-.176-71.062-1.026-47.776-2.184-69.919-24.9-72.088-72.1-.85-18.539-1.026-24.093-1.026-71.062s.191-52.509,1.026-71.062C34.894,57.507,57.1,34.879,104.8,32.71c18.553-.835,24.108-1.011,71.062-1.011Zm0-31.7c-47.761,0-53.74.205-72.5,1.055C39.5,3.986,4,39.422,1.07,103.348.205,122.121,0,128.1,0,175.861s.205,53.755,1.055,72.513c2.931,63.867,38.367,99.361,102.292,102.292,18.773.85,24.752,1.055,72.513,1.055s53.755-.205,72.513-1.055c63.808-2.931,99.391-38.367,102.278-102.292.865-18.758,1.07-24.752,1.07-72.513s-.205-53.74-1.055-72.5C347.794,39.554,312.314,4,248.389,1.07,229.616.205,223.622,0,175.861,0Zm0,85.556a90.312,90.312,0,1,0,90.3,90.3A90.308,90.308,0,0,0,175.861,85.556Zm0,148.925a58.62,58.62,0,1,1,58.62-58.62A58.614,58.614,0,0,1,175.861,234.481Zm93.88-173.589A21.1,21.1,0,1,0,290.83,82,21.112,21.112,0,0,0,269.741,60.892Z" fill="#fff"/>
</svg>
