<svg xmlns="http://www.w3.org/2000/svg" width="351.722" height="351.722" viewBox="0 0 351.722 351.722">
  <path id="iconmonstr-globe-3" d="M175.861,0A175.861,175.861,0,1,0,351.722,175.861,175.869,175.869,0,0,0,175.861,0Zm14.655,235.317v-44.8h43.877a271.457,271.457,0,0,1-6.683,48.054,355.491,355.491,0,0,0-37.195-3.253ZM219.2,267c-7.313,19.491-16.985,36.594-28.68,50.648V264.6C200.276,265.008,209.846,265.785,219.2,267Zm-28.68-105.8V117.021a354.319,354.319,0,0,0,37.341-3.283,270.907,270.907,0,0,1,6.536,47.468Zm0-73.481V34.073c11.812,14.2,21.558,31.508,28.885,51.234C209.993,86.538,200.35,87.315,190.516,87.725Zm39.613-47.878A146.957,146.957,0,0,1,278.344,71.3a255.378,255.378,0,0,1-29.589,8.9,224.544,224.544,0,0,0-18.627-40.345ZM124.011,238.57a270.11,270.11,0,0,1-6.683-48.054h43.877v44.8A355.492,355.492,0,0,0,124.011,238.57ZM161.206,264.6v53.051c-11.695-14.054-21.367-31.157-28.68-50.648C141.876,265.785,151.446,265.008,161.206,264.6ZM117.329,161.206a269.529,269.529,0,0,1,6.536-47.468,354.319,354.319,0,0,0,37.341,3.283v44.185Zm15.007-75.9c7.328-19.726,17.073-37.033,28.87-51.234V87.725C151.372,87.315,141.729,86.538,132.335,85.307Zm-29.383-5.129a254.267,254.267,0,0,1-29.574-8.9,147.109,147.109,0,0,1,48.215-31.45,226.549,226.549,0,0,0-18.641,40.345Zm-8.046,28.108a298.676,298.676,0,0,0-7.21,52.919H30.058a145.458,145.458,0,0,1,23.7-66.212A279.4,279.4,0,0,0,94.906,108.286Zm.132,135.735a281.231,281.231,0,0,0-40.99,13.19,145.417,145.417,0,0,1-23.99-66.7H87.711A298.176,298.176,0,0,0,95.038,244.022Zm8.1,28.094a225.053,225.053,0,0,0,18.421,39.745,146.7,146.7,0,0,1-47.717-31,257.843,257.843,0,0,1,29.3-8.749Zm145.437,0a258.741,258.741,0,0,1,29.3,8.749,147.435,147.435,0,0,1-47.732,31.01A226.781,226.781,0,0,0,248.579,272.116Zm8.1-28.094a298.171,298.171,0,0,0,7.342-53.506h57.653a145.6,145.6,0,0,1-24.005,66.7A281.807,281.807,0,0,0,256.684,244.022Zm7.342-82.816a300.035,300.035,0,0,0-7.21-52.919,279.6,279.6,0,0,0,41.166-13.292,145.61,145.61,0,0,1,23.683,66.212H264.026Z" fill="#fff"/>
</svg>
