<svg width="24" height="24" viewBox="0 0 24 24" fill="none" xmlns="http://www.w3.org/2000/svg">
<path fill-rule="evenodd" clip-rule="evenodd" d="M3 16.8708V9.25781H21V16.9318C21 20.0708 19.0241 22.0008 15.8628 22.0008H8.12733C4.99561 22.0008 3 20.0308 3 16.8708ZM7.95899 14.41C7.50455 14.431 7.12913 14.07 7.10938 13.611C7.10938 13.151 7.46503 12.771 7.91947 12.75C8.36404 12.75 8.72957 13.101 8.73945 13.55C8.75921 14.011 8.40356 14.391 7.95899 14.41ZM12.0215 14.41C11.567 14.431 11.1916 14.07 11.1719 13.611C11.1719 13.151 11.5275 12.771 11.982 12.75C12.4265 12.75 12.7921 13.101 12.802 13.55C12.8217 14.011 12.4661 14.391 12.0215 14.41ZM16.0506 18.0916C15.5962 18.0816 15.2307 17.7016 15.2307 17.2416C15.2208 16.7816 15.5863 16.4026 16.0408 16.3926H16.0506C16.515 16.3926 16.8904 16.7726 16.8904 17.2416C16.8904 17.7116 16.515 18.0916 16.0506 18.0916ZM11.1719 17.2409C11.1916 17.7009 11.567 18.0619 12.0215 18.0409C12.4661 18.0219 12.8217 17.6419 12.802 17.1819C12.7921 16.7319 12.4265 16.3809 11.982 16.3809C11.5275 16.4019 11.1719 16.7809 11.1719 17.2409ZM7.10156 17.2409C7.12132 17.7009 7.49673 18.0619 7.95118 18.0409C8.39574 18.0219 8.7514 17.6419 8.73164 17.1819C8.72176 16.7319 8.35623 16.3809 7.91166 16.3809C7.45722 16.4019 7.10156 16.7809 7.10156 17.2409ZM15.2422 13.6017C15.2422 13.1417 15.5978 12.7717 16.0523 12.7617C16.4969 12.7617 16.8525 13.1207 16.8723 13.5617C16.8821 14.0217 16.5265 14.4017 16.0819 14.4107C15.6275 14.4207 15.2521 14.0707 15.2422 13.6117V13.6017Z" fill="#485166"/>
<path opacity="0.4" d="M3 9.25723C3.01284 8.67023 3.06224 7.50523 3.1551 7.13023C3.62931 5.02123 5.23963 3.68123 7.54149 3.49023H16.4526C18.7347 3.69123 20.3648 5.04023 20.839 7.13023C20.9308 7.49523 20.9802 8.66923 20.9931 9.25723H3Z" fill="#485166"/>
<path d="M8.30758 6.59C8.74226 6.59 9.06828 6.261 9.06828 5.82V2.771C9.06828 2.33 8.74226 2 8.30758 2C7.87289 2 7.54688 2.33 7.54688 2.771V5.82C7.54688 6.261 7.87289 6.59 8.30758 6.59Z" fill="#485166"/>
<path d="M15.6982 6.59C16.123 6.59 16.4589 6.261 16.4589 5.82V2.771C16.4589 2.33 16.123 2 15.6982 2C15.2635 2 14.9375 2.33 14.9375 2.771V5.82C14.9375 6.261 15.2635 6.59 15.6982 6.59Z" fill="#485166"/>
</svg>
