<svg width="26" height="26" viewBox="0 0 26 26" fill="none" xmlns="http://www.w3.org/2000/svg">
<path d="M1 13C1 19.6274 6.37258 25 13 25C19.6274 25 25 19.6274 25 13C25 6.37258 19.6274 1 13 1C6.37258 1 1 6.37258 1 13Z" fill="white" stroke="#9C56F6" stroke-width="1.5" stroke-linecap="round" stroke-linejoin="round"/>
<path d="M14 1C14 1 18 5.76427 18 13C18 20.2357 14 25 14 25" stroke="#9C56F6" stroke-width="1.5" stroke-linecap="round" stroke-linejoin="round"/>
<path d="M12 25C12 25 8 20.2357 8 13C8 5.76427 12 1 12 1" stroke="#9C56F6" stroke-width="1.5" stroke-linecap="round" stroke-linejoin="round"/>
<path d="M2 17H24" stroke="#9C56F6" stroke-width="1.5" stroke-linecap="round" stroke-linejoin="round"/>
<path d="M2 9H24" stroke="#9C56F6" stroke-width="1.5" stroke-linecap="round" stroke-linejoin="round"/>
</svg>
