<svg width="28" height="29" viewBox="0 0 28 29" fill="none" xmlns="http://www.w3.org/2000/svg">
<path d="M23.7032 4.90391C21.9186 4.08505 20.0048 3.48175 18.0039 3.13622C17.9674 3.12955 17.931 3.14621 17.9123 3.17954C17.6661 3.61729 17.3935 4.18838 17.2026 4.63724C15.0505 4.31505 12.9094 4.31505 10.8014 4.63724C10.6104 4.1784 10.3279 3.61729 10.0807 3.17954C10.0619 3.14732 10.0255 3.13066 9.98906 3.13622C7.98923 3.48065 6.07549 4.08395 4.28976 4.90391C4.2743 4.91058 4.26105 4.9217 4.25225 4.93613C0.62229 10.3592 -0.372109 15.649 0.11571 20.8732C0.117917 20.8988 0.132265 20.9232 0.152131 20.9388C2.54708 22.6976 4.86699 23.7653 7.14383 24.473C7.18026 24.4842 7.21887 24.4708 7.24206 24.4408C7.78065 23.7053 8.26075 22.9298 8.67239 22.1143C8.69668 22.0665 8.67349 22.0098 8.62384 21.9909C7.86232 21.7021 7.1372 21.3499 6.43968 20.9499C6.38451 20.9177 6.3801 20.8388 6.43085 20.801C6.57763 20.691 6.72446 20.5765 6.86461 20.461C6.88997 20.4399 6.92531 20.4354 6.95512 20.4488C11.5375 22.5409 16.4985 22.5409 21.0268 20.4488C21.0566 20.4343 21.0919 20.4388 21.1184 20.4599C21.2586 20.5754 21.4054 20.691 21.5533 20.801C21.604 20.8388 21.6007 20.9177 21.5455 20.9499C20.848 21.3576 20.1229 21.7021 19.3603 21.9898C19.3106 22.0087 19.2885 22.0665 19.3128 22.1143C19.7333 22.9287 20.2134 23.7042 20.742 24.4397C20.7641 24.4708 20.8038 24.4842 20.8403 24.473C23.1282 23.7653 25.4481 22.6976 27.843 20.9388C27.864 20.9232 27.8772 20.8999 27.8794 20.8743C28.4633 14.8346 26.9016 9.58816 23.7396 4.93724C23.7319 4.9217 23.7186 4.91058 23.7032 4.90391ZM9.35669 17.6922C7.97708 17.6922 6.84032 16.4256 6.84032 14.8701C6.84032 13.3146 7.95504 12.0481 9.35669 12.0481C10.7694 12.0481 11.8951 13.3258 11.873 14.8701C11.873 16.4256 10.7583 17.6922 9.35669 17.6922ZM18.6605 17.6922C17.281 17.6922 16.1442 16.4256 16.1442 14.8701C16.1442 13.3146 17.2589 12.0481 18.6605 12.0481C20.0732 12.0481 21.199 13.3258 21.1769 14.8701C21.1769 16.4256 20.0732 17.6922 18.6605 17.6922Z" fill="white"/>
</svg>
